<svg xmlns="http://www.w3.org/2000/svg" viewBox="0 0 512 512">
  <defs>
    <linearGradient id="bgGrad" x1="0%" y1="0%" x2="100%" y2="100%">
      <stop offset="0%" style="stop-color:#3b82f6"/>
      <stop offset="100%" style="stop-color:#8b5cf6"/>
    </linearGradient>
    <linearGradient id="iconGrad" x1="0%" y1="0%" x2="100%" y2="100%">
      <stop offset="0%" style="stop-color:#ffffff"/>
      <stop offset="100%" style="stop-color:#e0e7ff"/>
    </linearGradient>
  </defs>
  <!-- Background rounded square -->
  <rect x="32" y="32" width="448" height="448" rx="96" fill="url(#bgGrad)"/>
  <!-- Image icon - mountains/landscape style representing images -->
  <g fill="url(#iconGrad)">
    <!-- Main image frame -->
    <rect x="112" y="144" width="288" height="224" rx="24" fill="none" stroke="url(#iconGrad)" stroke-width="20"/>
    <!-- Sun circle -->
    <circle cx="200" cy="220" r="36"/>
    <!-- Mountain shape -->
    <path d="M112 340 L220 240 L280 300 L340 220 L400 340 L400 344 C400 357 390 368 376 368 L136 368 C122 368 112 357 112 344 Z"/>
  </g>
  <!-- Conversion arrow -->
  <g fill="#22c55e">
    <path d="M380 400 L440 440 L380 480 L380 460 L320 460 L320 420 L380 420 Z"/>
  </g>
</svg>
